<?xml version='1.0' encoding='iso-8859-1'?>
<svg version="1.1" xmlns="http://www.w3.org/2000/svg" viewBox="0 0 463 463" xmlns:xlink="http://www.w3.org/1999/xlink" enable-background="new 0 0 463 463">
  <path d="m407,175.5c0-96.771-78.729-175.5-175.5-175.5s-175.5,78.729-175.5,175.5c0,88.803 66.301,162.402 152,173.922v50.887c-8.856,1.226-16.823,6.155-21.865,13.718l-17.75,26.626c-3.067,4.601-8.199,7.347-13.729,7.347h-11.156c-4.143,0-7.5,3.358-7.5,7.5s3.357,7.5 7.5,7.5h176c4.143,0 7.5-3.358 7.5-7.5s-3.357-7.5-7.5-7.5h-11.155c-5.53,0-10.662-2.747-13.729-7.347l-17.75-26.626c-5.042-7.563-13.01-12.491-21.865-13.718v-50.887c85.698-11.52 151.999-85.119 151.999-173.922zm-336,0c0-88.5 72-160.5 160.5-160.5s160.5,72 160.5,160.5c0,80.518-59.601,147.369-137,158.775v-74.491c2.199-0.613 4.382-1.292 6.535-2.08l11.023,12.598c9.322,10.653 22.782,17.033 36.93,17.503 0.563,0.019 1.126,0.028 1.688,0.028 13.556,0 26.713-5.428 36.35-15.063 4.581-4.582 7.085-10.923 6.87-17.398-0.216-6.476-3.136-12.637-8.013-16.904l-33.939-29.696c4.348-10.548 6.556-21.719 6.556-33.272 0-10.843-1.966-21.377-5.816-31.378l12.158-10.639c10.653-9.321 17.033-22.781 17.504-36.929 0.472-14.147-4.999-28.002-14.96-37.962-0.016-0.017-0.059-0.06-0.075-0.076-4.582-4.581-10.906-7.094-17.399-6.869-6.476,0.215-12.637,3.136-16.903,8.012l-30.082,34.38c-10.167-3.991-20.891-6.039-31.927-6.039-10.873,0-21.437,1.981-31.464,5.853l-11.51-13.154c-9.321-10.653-22.781-17.033-36.929-17.503-14.164-0.476-28.002,5-37.941,14.939-0.033,0.032-0.065,0.064-0.098,0.096-4.581,4.582-7.085,10.924-6.869,17.4 0.216,6.475 3.137,12.636 8.013,16.902l35.356,30.937c-4.018,10.191-6.058,20.948-6.058,32.03 0,10.383 1.795,20.497 5.331,30.125l-13.591,11.892c-10.653,9.321-17.033,22.781-17.504,36.929s5,28.002 14.961,37.962c0.016,0.017 0.059,0.06 0.075,0.076 4.399,4.399 10.42,6.882 16.625,6.882 0.258,0 0.516-0.004 0.773-0.013 6.476-0.215 12.637-3.136 16.903-8.012l30.568-34.934c3.23,1.335 6.518,2.474 9.858,3.405v74.463c-77.398-11.406-136.999-78.257-136.999-158.775zm88,0c0-7.341 1.088-14.504 3.216-21.391l22.995,20.121-23.579,20.632c-1.735-6.267-2.632-12.744-2.632-19.362zm145,0c0,7.819-1.228,15.422-3.633,22.703l-24.495-21.433 25.113-21.974c1.99,6.679 3.015,13.609 3.015,20.704zm-61.318,37.878c11.67-3.451 21.099-12.156 25.544-23.366l68.279,59.744c1.79,1.566 2.819,3.738 2.898,6.115 0.079,2.376-0.804,4.611-2.511,6.319-7.189,7.189-16.741,10.969-26.906,10.624-10.161-0.338-19.444-4.738-26.14-12.39l-41.164-47.046zm-11.182-62.378c13.51,0 24.5,10.991 24.5,24.5s-10.99,24.5-24.5,24.5-24.5-10.991-24.5-24.5 10.99-24.5 24.5-24.5zm37.431,11.912c-3.87-11.477-12.872-20.608-24.269-24.649l60.136-68.727c1.565-1.79 3.737-2.819 6.114-2.898 2.372-0.078 4.612,0.803 6.245,2.436 0.016,0.017 0.059,0.06 0.074,0.076 7.189,7.189 10.962,16.745 10.624,26.906-0.339,10.161-4.739,19.444-12.39,26.139l-46.534,40.717zm-37.118-32.743l-21.113-24.128c6.708-2.009 13.672-3.041 20.8-3.041 7.303,0 14.44,1.069 21.304,3.179l-20.991,23.99zm-12.993,7.931c-11.403,3.877-20.479,12.822-24.525,24.146l-69.716-61.002c-1.789-1.566-2.818-3.737-2.897-6.113-0.08-2.377 0.803-4.612 2.414-6.225 0.032-0.032 0.065-0.063 0.098-0.096 7.188-7.189 16.73-10.966 26.905-10.624 10.161,0.338 19.444,4.738 26.139,12.39l41.582,47.524zm-25.171,48.677c3.461,11.595 12.113,20.966 23.25,25.414l-60.614,69.272c-1.565,1.79-3.737,2.819-6.113,2.898-2.386,0.078-4.612-0.803-6.245-2.436-0.016-0.017-0.059-0.06-0.074-0.076-7.189-7.189-10.963-16.745-10.624-26.906 0.338-10.161 4.737-19.444 12.389-26.139l48.031-42.027zm35.622,34.054l21.495,24.565c-6.235,1.717-12.681,2.604-19.266,2.604-7.852,0-15.49-1.23-22.802-3.657l20.573-23.512zm2.229,42.169c2.856,0 5.69-0.143 8.5-0.413v73.188c-2.815,0.148-5.649,0.225-8.5,0.225s-5.685-0.078-8.5-0.225v-73.186c2.808,0.269 5.642,0.411 8.5,0.411zm32.885,159.347l17.1,25.653h-99.971l17.101-25.653c3.067-4.601 8.199-7.347 13.729-7.347h38.311c5.531,0 10.662,2.747 13.73,7.347zm-24.385-22.347h-17v-49.209c2.817,0.135 5.65,0.209 8.5,0.209s5.683-0.074 8.5-0.209v49.209z"/>
</svg>
