<?xml version='1.0' encoding='iso-8859-1'?>
<!DOCTYPE svg PUBLIC '-//W3C//DTD SVG 1.1//EN' 'http://www.w3.org/Graphics/SVG/1.1/DTD/svg11.dtd'>
<svg version="1.1" xmlns="http://www.w3.org/2000/svg" viewBox="0 0 452.978 452.978" xmlns:xlink="http://www.w3.org/1999/xlink" enable-background="new 0 0 452.978 452.978">
  <g>
    <path d="m226.49,131.644c-12.153,0-22.04,9.887-22.04,22.04 0,12.153 9.887,22.041 22.04,22.041s22.04-9.887 22.04-22.041c0-12.153-9.887-22.04-22.04-22.04zm0,29.08c-3.882,0-7.04-3.158-7.04-7.041 0-3.882 3.158-7.04 7.04-7.04s7.04,3.158 7.04,7.04c0,3.883-3.159,7.041-7.04,7.041z"/>
    <path d="m300.389,397.139h-19.697l-13.618-95.221c65.111-17.847 113.1-77.537 113.1-148.235-0.001-84.741-68.943-153.683-153.684-153.683-84.743,0-153.685,68.942-153.685,153.684 0,70.698 47.989,130.389 113.101,148.235l-13.618,95.221h-19.698c-21.722,0-39.394,17.672-39.394,39.394v8.945c0,4.142 3.357,7.5 7.5,7.5h211.587c4.143,0 7.5-3.358 7.5-7.5v-8.945c-0.001-21.723-17.672-39.395-39.394-39.395zm64.784-243.455c0,21.317-4.839,41.524-13.469,59.586 0.513-8.11-2.414-17.284-8.712-26.791-0.95-1.435-1.977-2.862-3.059-4.281 2.296-9.13 3.521-18.681 3.521-28.514 0-53.358-35.915-98.484-84.84-112.478-0.618-1.448-1.259-2.868-1.938-4.233-5.427-10.895-12.446-18.274-20.33-21.618 71.888,5.072 128.827,65.173 128.827,138.329zm-29.766,63.27c-2.296,3.979-7.757,6.361-15.354,6.841 5.417-7.21 10.015-15.067 13.668-23.427 3.326,6.763 3.972,12.633 1.686,16.586zm-216.15-16.586c3.654,8.36 8.252,16.217 13.668,23.427-7.595-0.481-13.059-2.863-15.356-6.846-2.282-3.949-1.637-9.818 1.688-16.581zm5.268-46.684c0-42.916 26.652-79.72 64.271-94.741-1.943,8.844-2.977,18.428-2.99,28.3-21.892,13.455-36.643,37.419-37.209,64.812-0.054,0.031-0.109,0.061-0.163,0.092-8.449,4.878-16.161,10.483-22.809,16.5-0.721-4.886-1.1-9.881-1.1-14.963zm101.969-125.382c4.465,7.10543e-15 9.116,3.29 13.216,9.168-4.341-0.49-8.75-0.751-13.22-0.751-4.467,0-8.873,0.26-13.211,0.75 4.099-5.878 8.75-9.167 13.215-9.167zm-.004,23.417c7.166,0 14.161,0.747 20.914,2.16 2.36,7.469 4.009,16.312 4.566,26.171-7.99-2.773-16.558-4.3-25.48-4.3-8.919,0-17.483,1.526-25.471,4.297 0.558-9.858 2.207-18.701 4.566-26.17 6.75-1.412 13.741-2.158 20.905-2.158zm100.864,116.928c-6.648-6.017-14.359-11.622-22.808-16.5-0.055-0.031-0.11-0.061-0.164-0.093-0.566-27.389-15.313-51.351-37.2-64.806-0.013-9.872-1.047-19.457-2.99-28.302 37.615,15.023 64.263,51.825 64.263,94.737-0.001,5.083-0.38,10.079-1.101,14.964zm-63.967,35.973c-5.585-3.813-10.71-7.987-15.146-12.332 13.408-7.585 22.498-21.943 22.574-38.398 5.96,1.688 12.116,4.052 18.184,6.99-2.053,17.951-11.685,33.624-25.612,43.74zm-99.407-43.74c6.068-2.937 12.224-5.302 18.184-6.99 0.076,16.456 9.166,30.814 22.574,38.399-4.436,4.344-9.56,8.518-15.145,12.332-13.928-10.117-23.56-25.79-25.613-43.741zm22.899-56.054c0.959,7.605 2.557,14.849 4.749,21.523-2.688,3.42-4.882,7.241-6.479,11.36-6.831,1.418-13.859,3.632-20.888,6.573 2.384-15.852 10.706-29.78 22.618-39.456zm39.611,78.189c-16.173,0-29.331-13.158-29.331-29.331 0-16.173 13.158-29.331 29.331-29.331s29.331,13.158 29.331,29.331c0,16.173-13.159,29.331-29.331,29.331zm22.398-67.564c-6.578-3.868-14.231-6.098-22.398-6.098-8.164,0-15.814,2.228-22.39,6.093-1.518-6.048-2.52-12.55-2.982-19.336 7.767-3.437 16.347-5.36 25.372-5.36 9.029,0 17.611,1.926 25.381,5.364-0.463,6.787-1.465,13.289-2.983,19.337zm-28.492,82.135c1.993,0.275 4.025,0.429 6.093,0.429s4.1-0.154 6.093-0.429c4.636,5.261 10.073,10.293 16.151,14.959-6.921,2.624-14.415,4.073-22.244,4.073s-15.323-1.449-22.244-4.073c6.079-4.667 11.515-9.698 16.151-14.959zm47.435-59.877c-1.596-4.116-3.788-7.934-6.473-11.351 2.193-6.674 3.791-13.919 4.75-21.525 11.907,9.676 20.226,23.602 22.61,39.45-7.028-2.942-14.056-5.156-20.887-6.574zm-138.154,47.986c5.56-6.034 12.48-11.8 20.356-16.931 3.441,17.473 12.741,32.857 25.76,44.037-8.392,4.285-16.864,7.423-24.889,9.248-9.415-10.4-16.716-22.747-21.227-36.354zm59.447,36.932c0.17-0.098 0.335-0.2 0.505-0.298 10.982,5.921 23.534,9.289 36.861,9.289 13.327,0 25.879-3.368 36.861-9.289 0.169,0.098 0.334,0.2 0.504,0.298 8.337,4.813 16.927,8.654 25.353,11.396-17.31,13.543-39.087,21.626-62.719,21.626-23.631,0-45.409-8.083-62.719-21.626 8.427-2.742 17.017-6.583 25.354-11.396zm88.061-9.825c13.019-11.18 22.319-26.564 25.76-44.036 7.875,5.13 14.796,10.896 20.356,16.93-4.511,13.607-11.812,25.954-21.227,36.354-8.025-1.825-16.497-4.963-24.889-9.248zm-60.544-197.448c-7.886,3.344-14.906,10.723-20.333,21.619-0.679,1.364-1.319,2.783-1.937,4.23-48.929,13.991-84.847,59.12-84.847,112.48 0,9.833 1.226,19.383 3.521,28.513-1.082,1.419-2.109,2.847-3.06,4.282-6.298,9.508-9.225,18.683-8.712,26.791-8.63-18.063-13.469-38.269-13.469-59.586 0.001-73.158 56.945-133.26 128.837-138.329zm-103.794,217.724c5.869,3.815 13.689,5.814 23.026,5.814 1.398,0 2.831-0.045 4.296-0.135 1.822-0.112 3.677-0.297 5.557-0.546 21.011,20.084 49.471,32.438 80.764,32.438s59.752-12.353 80.764-32.437c1.88,0.249 3.735,0.434 5.557,0.546 1.465,0.09 2.896,0.135 4.295,0.135 9.336,0 17.157-1.999 23.025-5.813-25.101,35.819-66.679,59.288-113.641,59.288-46.963,0-88.542-23.469-113.643-59.29zm87.746,72.097c8.422,1.435 17.072,2.193 25.896,2.193s17.474-0.758 25.896-2.193l13.153,91.965h-78.098l13.153-91.965zm124.189,132.803h-196.586v-1.445c0-13.451 10.943-24.394 24.394-24.394h147.8c13.45,0 24.394,10.943 24.394,24.394v1.445z"/>
  </g>
</svg>
