<?xml version='1.0' encoding='iso-8859-1'?>
<!DOCTYPE svg PUBLIC '-//W3C//DTD SVG 1.1//EN' 'http://www.w3.org/Graphics/SVG/1.1/DTD/svg11.dtd'>
<svg version="1.1" xmlns="http://www.w3.org/2000/svg" viewBox="0 0 446 446" xmlns:xlink="http://www.w3.org/1999/xlink" enable-background="new 0 0 446 446">
  <g>
    <path d="m388.707,165.708c0-91.372-74.336-165.708-165.707-165.708s-165.707,74.336-165.707,165.708c-7.10543e-15,75.416 50.645,139.22 119.708,159.206l-10.762,64.382c-14.57,2.034-25.823,14.57-25.823,29.692v19.512c0,4.142 3.357,7.5 7.5,7.5h150.168c4.143,0 7.5-3.358 7.5-7.5v-19.513c0-15.123-11.254-27.659-25.826-29.692l-10.762-64.382c69.065-19.984 119.711-83.788 119.711-159.205zm-160.708,150.615v-25.686c17.679-0.699 34.427-5.08 49.493-12.405 3.206,0.777 6.52,1.232 9.91,1.342 0.537,0.017 1.071,0.026 1.605,0.026 12.786,0 24.75-4.951 33.839-14.04 1.953-1.953 1.953-5.119 0-7.071l-8.015-8.015c19.544-21.157 31.885-49.055 33.099-79.768h25.686c-2.593,79.133-66.482,143.023-145.617,145.617zm-45.039-150.615c0-10.694 4.164-20.749 11.727-28.311 7.563-7.563 17.616-11.727 28.312-11.727 10.694,0 20.749,4.165 28.312,11.727 15.61,15.611 15.61,41.011 0,56.622-7.563,7.562-17.617,11.727-28.312,11.727-10.695,0-20.749-4.165-28.312-11.727-7.563-7.562-11.727-17.617-11.727-28.311zm50.876,75.856c-1.924,0.274-3.87,0.472-5.837,0.599v-7.243l5.837,6.644zm-9.404-25.853c11.153-0.313 21.688-4.244 30.237-11.258l18.829,18.829c-8.161,7.167-17.845,12.631-28.506,15.831l-20.56-23.402zm37.305-18.332c4.48-5.472 7.615-11.681 9.424-18.185l9.663-8.489h18.633c-1.125,17.375-8.062,33.182-18.887,45.507l-18.833-18.833zm30.47-36.674l6.65-5.842c0.274,1.925 0.473,3.874 0.6,5.842h-7.25zm-19.229,3.582c-0.303-10.77-4.042-21.458-11.241-30.25l18.833-18.833c7.167,8.16 12.632,17.843 15.833,28.503l-23.425,20.58zm-18.308-37.324c-5.396-4.428-11.587-7.619-18.222-9.459l-8.449-9.62v-18.633c17.372,1.125 33.177,8.06 45.501,18.883l-18.83,18.829zm-36.671-30.465l-5.838-6.647c1.924-0.274 3.871-0.472 5.838-0.6v7.247zm3.56,19.207c-11.154,0.313-21.688,4.246-30.236,11.261l-18.828-18.827c8.162-7.169 17.847-12.635 28.51-15.836l20.554,23.402zm-37.306,18.332c-4.426,5.395-7.617,11.583-9.457,18.215l-9.622,8.454h-18.63c1.126-17.37 8.06-33.173 18.882-45.496l18.827,18.827zm-30.462,36.668l-6.648,5.841c-0.274-1.925-0.472-3.873-0.6-5.841h7.248zm19.204-3.561c0.313,11.153 4.245,21.687 11.259,30.236l-18.827,18.827c-7.167-8.161-12.631-17.844-15.832-28.505l23.4-20.558zm18.329,37.307c5.395,4.427 11.584,7.618 18.216,9.459l8.458,9.628v18.626c-17.373-1.125-33.179-8.062-45.502-18.885l18.828-18.828zm36.675,47.746c4.621-0.264 9.145-0.894 13.546-1.857l11.387,12.962c3.413,3.885 7.337,7.123 11.635,9.669-11.424,4.442-23.726,7.107-36.568,7.659v-28.433zm32.445,4.505l-8.272-9.416c10.57-3.791 20.194-9.581 28.417-16.913l20.099,20.098c-7.269,6.667-15.395,12.411-24.191,17.051-6.126-2.111-11.629-5.786-16.053-10.82zm47.316,.841l4.253,4.253c-5.597,4.312-12.192,6.925-19.229,7.616 5.295-3.574 10.298-7.548 14.976-11.869zm-20.099-34.24c12.623-14.156 20.678-32.466 21.829-52.598h28.433c-1.201,27.957-12.424,53.359-30.164,72.696l-20.098-20.098zm21.829-62.598c-0.265-4.623-0.894-9.148-1.859-13.551l12.957-11.383c3.886-3.415 7.126-7.34 9.673-11.639 4.444,11.425 7.109,23.729 7.662,36.573h-28.433zm15.322-48.501c-2.112,6.126-5.788,11.63-10.824,16.055l-9.412,8.269c-3.792-10.569-9.583-20.192-16.914-28.415l20.098-20.098c6.667,7.268 12.411,15.393 17.052,24.189zm-9.98-31.261l4.251-4.251c4.311,5.596 6.925,12.196 7.617,19.223-3.574-5.293-7.548-10.295-11.868-14.972zm-34.241,20.099c-14.155-12.621-32.463-20.674-52.592-21.825v-28.432c27.955,1.202 53.354,12.423 72.69,30.159l-20.098,20.098zm-62.592-21.824c-4.621,0.264-9.145,0.894-13.546,1.857l-11.382-12.959c-3.414-3.886-7.339-7.125-11.638-9.672 11.423-4.442 23.725-7.106 36.565-7.659v28.433zm-32.439-4.503l8.268,9.414c-10.572,3.792-20.198,9.584-28.422,16.918l-20.099-20.098c7.271-6.67 15.4-12.416 24.199-17.058 6.126,2.112 11.629,5.788 16.054,10.824zm-47.325-.838l-4.256-4.256c5.601-4.316 12.199-6.928 19.241-7.62-5.299,3.576-10.305,7.552-14.985,11.876zm20.1,34.241c-12.619,14.155-20.672,32.461-21.824,52.587h-28.433c1.202-27.952 12.422-53.35 30.158-72.686l20.099,20.099zm-21.824,62.587c0.264,4.622 0.894,9.148 1.858,13.55l-12.958,11.384c-3.886,3.415-7.126,7.34-9.673,11.638-4.443-11.425-7.108-23.728-7.66-36.571h28.433zm-15.326,48.498c2.113-6.125 5.789-11.627 10.826-16.052l9.412-8.269c3.791,10.569 9.581,20.193 16.913,28.416l-20.099,20.098c-6.667-7.27-12.411-15.397-17.052-24.193zm9.981,31.264l-4.251,4.25c-4.312-5.598-6.927-12.199-7.62-19.228 3.575,5.296 7.549,10.3 11.871,14.978zm34.241-20.099c14.155,12.622 32.464,20.676 52.593,21.828v28.433c-27.955-1.202-53.356-12.424-72.692-30.162l20.099-20.099zm208.209-69.664h-25.686c-0.699-17.681-5.081-34.43-12.408-49.497 0.777-3.205 1.232-6.518 1.341-9.906 0.433-13.386-4.546-25.974-14.017-35.445-0.938-0.938-2.209-1.464-3.535-1.464s-2.598,0.527-3.535,1.464l-8.014,8.014c-21.156-19.541-49.052-31.88-79.762-33.094v-25.685c79.133,2.593 143.021,66.481 145.616,145.613zm-155.616-145.613v25.686c-17.677,0.699-34.424,5.079-49.488,12.404-3.207-0.778-6.523-1.233-9.913-1.343-13.396-0.442-25.98,4.546-35.453,14.019-0.938,0.938-1.465,2.209-1.465,3.536s0.526,2.598 1.465,3.536l8.019,8.019c-19.54,21.155-31.878,49.049-33.093,79.757h-25.686c2.595-79.133 66.482-143.02 145.614-145.614zm-145.614,155.613h25.686c0.699,17.679 5.079,34.427 12.405,49.493-0.778,3.206-1.233,6.521-1.342,9.91-0.433,13.384 4.547,25.972 14.02,35.444 0.976,0.976 2.256,1.464 3.535,1.464s2.56-0.488 3.535-1.464l8.013-8.013c21.156,19.542 49.052,31.883 79.763,33.097v25.686c-79.135-2.593-143.023-66.483-145.615-145.617zm218.199,248.282v12.013h-135.168v-12.013c0-8.264 6.724-14.987 14.987-14.987h105.193c8.264,0 14.988,6.723 14.988,14.987zm-26.083-29.987h-83.005l10.127-60.578c10.164,1.956 20.651,2.993 31.377,2.993 10.725,0 21.211-1.037 31.374-2.992l10.127,60.577z"/>
    <path d="m200.999,361.5c0,12.131 9.869,22 22,22s22-9.869 22-22-9.869-22-22-22-22,9.869-22,22zm34,0c0,6.617-5.383,12-12,12s-12-5.383-12-12 5.383-12 12-12 12,5.383 12,12z"/>
  </g>
</svg>
